<svg width="28" height="28" viewBox="0 0 28 28" fill="none" xmlns="http://www.w3.org/2000/svg">
<path d="M11.828 12.068C11.144 12.068 10.604 12.668 10.604 13.4C10.604 14.132 11.156 14.732 11.828 14.732C12.512 14.732 13.052 14.132 13.052 13.4C13.064 12.668 12.512 12.068 11.828 12.068ZM16.208 12.068C15.524 12.068 14.984 12.668 14.984 13.4C14.984 14.132 15.536 14.732 16.208 14.732C16.892 14.732 17.432 14.132 17.432 13.4C17.432 12.668 16.892 12.068 16.208 12.068Z" fill="#7289DA"/>
<path d="M22.04 2H5.96C4.604 2 3.5 3.104 3.5 4.472V20.696C3.5 22.064 4.604 23.168 5.96 23.168H19.568L18.932 20.948L20.468 22.376L21.92 23.72L24.5 26V4.472C24.5 3.104 23.396 2 22.04 2ZM17.408 17.672C17.408 17.672 16.976 17.156 16.616 16.7C18.188 16.256 18.788 15.272 18.788 15.272C18.296 15.596 17.828 15.824 17.408 15.98C16.808 16.232 16.232 16.4 15.668 16.496C14.516 16.712 13.46 16.652 12.56 16.484C11.876 16.352 11.288 16.16 10.796 15.968C10.52 15.86 10.22 15.728 9.92 15.56C9.884 15.536 9.848 15.524 9.812 15.5C9.788 15.488 9.776 15.476 9.764 15.464C9.548 15.344 9.428 15.26 9.428 15.26C9.428 15.26 10.004 16.22 11.528 16.676C11.168 17.132 10.724 17.672 10.724 17.672C8.072 17.588 7.064 15.848 7.064 15.848C7.064 11.984 8.792 8.852 8.792 8.852C10.52 7.556 12.164 7.592 12.164 7.592L12.284 7.736C10.124 8.36 9.128 9.308 9.128 9.308C9.128 9.308 9.392 9.164 9.836 8.96C11.12 8.396 12.14 8.24 12.56 8.204C12.632 8.192 12.692 8.18 12.764 8.18C13.496 8.084 14.324 8.06 15.188 8.156C16.328 8.288 17.552 8.624 18.8 9.308C18.8 9.308 17.852 8.408 15.812 7.784L15.98 7.592C15.98 7.592 17.624 7.556 19.352 8.852C19.352 8.852 21.08 11.984 21.08 15.848C21.08 15.848 20.06 17.588 17.408 17.672Z" fill="#7289DA"/>
</svg>
