<svg width="29" height="28" viewBox="0 0 29 28" fill="none" xmlns="http://www.w3.org/2000/svg">
<path d="M2.05872 14.3043C2.05872 7.50859 7.56788 2 14.3613 2C21.1569 2 26.6667 7.50859 26.6667 14.3043C26.6667 19.7386 23.1442 24.3471 18.2588 25.9774C17.635 26.0975 17.413 25.7146 17.413 25.3855C17.413 24.9821 17.4283 23.6548 17.4283 22.0097C17.4283 20.8626 17.0346 20.1114 16.5933 19.7318C19.334 19.4276 22.2106 18.3875 22.2106 13.6607C22.2106 12.3176 21.7348 11.2186 20.9462 10.3592C21.0725 10.0476 21.4946 8.79623 20.8233 7.10298C20.8233 7.10298 19.7923 6.77215 17.443 8.364C16.4607 8.09095 15.4082 7.95498 14.363 7.94932C13.3167 7.95498 12.2641 8.09095 11.2829 8.364C8.932 6.77215 7.89984 7.10298 7.89984 7.10298C7.22968 8.79623 7.65172 10.0476 7.77861 10.3592C6.99175 11.2186 6.51193 12.3176 6.51193 13.6607C6.51193 18.3751 9.38462 19.431 12.1168 19.7415C11.7656 20.0491 11.4472 20.5912 11.3356 21.386C10.6349 21.701 8.85212 22.2442 7.75482 20.364C7.75482 20.364 7.10506 19.1829 5.8701 19.0957C5.8701 19.0957 4.66856 19.0809 5.78569 19.8434C5.78569 19.8434 6.59238 20.2219 7.15207 21.6438C7.15207 21.6438 7.87435 24.0366 11.296 23.2934C11.3022 24.3199 11.313 25.0932 11.313 25.3855C11.313 25.7118 11.0886 26.0919 10.4729 25.9786C5.58402 24.3516 2.05872 19.7403 2.05872 14.3043Z" fill="white"/>
</svg>
