<svg width="33" height="33" viewBox="0 0 33 33" fill="none" xmlns="http://www.w3.org/2000/svg">
<path d="M15.9609 13.2086C15.1814 13.2086 13.9221 12.2921 13.9221 12.2921C11.8347 15.9166 10.0842 20.0251 10.9237 21.9154C11.7632 23.8057 14.5369 24.4931 14.1619 25.5814C14.0375 25.9427 13.5623 26.3834 13.5623 26.3834C13.5623 26.3834 14.1619 27.4145 14.8216 27.5863C15.4812 27.7581 19.7388 27.529 20.6384 25.8106C21.2458 24.6501 20.8782 23.061 21.4779 22.4882C21.8753 22.1086 22.4374 22.2591 22.4374 22.2591C22.8571 18.3067 21.7846 14.189 19.439 11.9484C18.9593 11.4901 16.7405 13.2086 15.9609 13.2086Z" fill="white"/>
<path d="M14.4018 11.2037C14.4161 10.86 15.7211 10.1154 15.9609 10.0581C16.3807 9.95784 18.6235 10.5736 18.7194 11.0319C18.7794 11.3183 17.102 12.5212 16.0209 12.5212C15.4812 12.5212 14.3779 11.7765 14.4018 11.2037Z" fill="#F9AB10"/>
<path d="M13.3224 27.5863C14.042 28.5601 12.9948 29.5515 12.0031 29.362C9.60443 28.9038 6.18631 28.2737 6.06637 27.7581C5.94183 27.2228 6.36621 27.0464 6.36621 26.4979C6.36621 25.8678 5.91322 25.3195 6.24627 24.7795C6.64851 24.1273 7.51414 24.5809 8.16521 24.1494C8.79342 23.733 8.77985 22.8319 9.54446 22.8319C10.5039 22.8319 11.8773 25.6307 13.3224 27.5863Z" fill="#F9AB10"/>
<path d="M22.2575 23.1756C22.6772 23.1756 22.8888 24.9512 23.8166 24.8941C25.6756 24.7795 25.9154 23.462 26.1553 23.5766C26.3952 23.6911 26.2837 24.7094 26.695 25.2377C27.1626 25.8383 28.0742 26.0397 28.0742 26.3834C28.0742 26.7271 24.3563 28.6174 23.6367 29.1902C22.9171 29.763 21.7177 29.5912 21.7777 28.3882C21.8377 27.1853 21.8377 23.1756 22.2575 23.1756Z" fill="#F9AB10"/>
<path fill-rule="evenodd" clip-rule="evenodd" d="M21.7777 8.85517C21.7078 6.11724 19.6617 3.52379 16.8005 3.69981C13.6022 3.89657 12.5234 7.74172 13.1425 10.7455C13.4608 12.2899 12.6179 13.441 11.8265 14.5216L11.8232 14.5261C10.1662 16.7887 9.38819 18.1957 8.76489 20.8843C8.73717 21.0039 8.73912 21.1514 8.74129 21.3154C8.74595 21.6682 8.75162 22.0972 8.46505 22.4882C8.41523 22.5562 8.36957 22.6205 8.32613 22.6817C8.07962 23.029 7.90446 23.2758 7.44561 23.5193C7.16029 23.6707 6.87407 23.7286 6.6024 23.7835C6.19322 23.8663 5.81703 23.9423 5.52667 24.3212C5.19788 24.7503 5.26763 25.1621 5.34471 25.6173C5.39104 25.8908 5.44001 26.18 5.40673 26.4979C5.37845 26.7682 5.27766 27.0384 5.1881 27.2785C5.0878 27.5475 5.00156 27.7787 5.04693 27.93C5.23217 28.5476 6.20659 28.78 6.92281 28.9508L6.96587 28.9611C7.12893 29 7.40624 29.0762 7.75851 29.1731C8.96093 29.5036 11.0367 30.0741 12.4229 30.2213C13.1059 30.2938 13.4919 30.0053 13.8712 29.7218C14.0913 29.5572 14.3092 29.3944 14.5817 29.3048C16.4131 28.7022 18.0188 28.7794 20.2186 29.3048C20.6127 29.3989 20.9509 29.6033 21.2884 29.8072C21.9778 30.2238 22.6638 30.6384 23.8166 30.1067C25.101 29.5142 26.1751 28.8029 26.9361 28.2989C27.1924 28.1291 27.4132 27.9829 27.5945 27.8727C27.7069 27.8044 27.8184 27.7408 27.9267 27.679C28.5124 27.3449 29.0053 27.0637 29.0337 26.3834C29.0546 25.8827 28.66 25.6872 28.2262 25.4724C27.9068 25.3142 27.5661 25.1456 27.3546 24.8368C26.7992 24.0258 26.8247 22.7174 26.8749 22.4882C27.4272 19.9678 26.1553 17.0465 23.6367 14.2397C22.3371 12.7913 21.8377 11.2037 21.7777 8.85517ZM13.922 12.2921C13.922 12.2921 15.1813 13.2086 15.9609 13.2086C16.2979 13.2086 16.9039 12.8874 17.5221 12.5598C18.3338 12.1296 19.1667 11.6882 19.439 11.9484C21.7846 14.189 22.8571 18.3067 22.4373 22.2591C22.4373 22.2591 21.8753 22.1086 21.4779 22.4882C21.171 22.7813 21.1174 23.3405 21.0569 23.9721C20.9991 24.575 20.935 25.2439 20.6383 25.8106C19.7388 27.529 15.4812 27.7581 14.8216 27.5863C14.1619 27.4145 13.5622 26.3834 13.5622 26.3834C13.5622 26.3834 14.0374 25.9427 14.1619 25.5814C14.3522 25.0293 13.732 24.5804 12.9652 24.0252C12.2204 23.4861 11.3373 22.8467 10.9237 21.9154C10.0842 20.0251 11.8347 15.9166 13.922 12.2921ZM15.9609 10.0581C15.721 10.1154 14.4161 10.86 14.4018 11.2037C14.3779 11.7765 15.4812 12.5212 16.0209 12.5212C17.102 12.5212 18.7794 11.3183 18.7194 11.0319C18.6234 10.5736 16.3807 9.95784 15.9609 10.0581ZM22.2574 23.1756C22.4248 23.1756 22.5591 23.4578 22.7188 23.7936C22.9598 24.3001 23.2587 24.9284 23.8166 24.8941C25.117 24.8139 25.6251 24.1451 25.8952 23.7897C26.0112 23.637 26.0832 23.5422 26.1553 23.5766C26.2635 23.6282 26.3002 23.8637 26.3456 24.1552C26.4009 24.51 26.4692 24.9477 26.695 25.2378C26.9256 25.534 27.2643 25.7331 27.5484 25.9001C27.8402 26.0716 28.0742 26.2092 28.0742 26.3834C28.0742 26.5873 26.7651 27.3359 25.5501 28.0305C24.7176 28.5066 23.9293 28.9573 23.6367 29.1902C22.9171 29.763 21.7177 29.5912 21.7777 28.3882C21.79 28.1426 21.7997 27.7798 21.811 27.3581C21.8552 25.7148 21.9234 23.1756 22.2574 23.1756ZM12.0031 29.362C12.9948 29.5515 14.042 28.5601 13.3224 27.5863C12.8786 26.9858 12.4416 26.3057 12.0213 25.6517C11.0728 24.1757 10.2093 22.8319 9.54445 22.8319C9.09699 22.8319 8.91604 23.1405 8.717 23.48C8.57593 23.7206 8.42578 23.9767 8.16521 24.1494C7.87725 24.3402 7.54733 24.358 7.23409 24.3748C6.83908 24.396 6.4706 24.4158 6.24626 24.7795C6.03912 25.1154 6.13604 25.4544 6.23892 25.8144C6.30146 26.0332 6.3662 26.2597 6.3662 26.4979C6.3662 26.7482 6.27786 26.9209 6.19362 27.0857C6.09322 27.2821 5.99865 27.4671 6.06637 27.7581C6.18128 28.2521 9.32349 28.8511 11.6962 29.3035C11.8001 29.3233 11.9025 29.3428 12.0031 29.362Z" fill="#424242"/>
</svg>
