<svg width="33" height="33" viewBox="0 0 33 33" fill="none" xmlns="http://www.w3.org/2000/svg">
<path fill-rule="evenodd" clip-rule="evenodd" d="M16.8005 3.69981C19.6617 3.52379 21.7078 6.11724 21.7777 8.85517C21.8377 11.2037 22.3371 12.7913 23.6367 14.2397C26.1553 17.0465 27.4272 19.9678 26.8749 22.4882C26.8247 22.7174 26.7992 24.0258 27.3546 24.8368C27.8533 25.5649 29.07 25.5139 29.0337 26.3834C29.0001 27.1896 28.3141 27.4353 27.5945 27.8727C26.8749 28.3101 25.5336 29.3147 23.8166 30.1067C22.0996 30.8987 21.4179 29.5912 20.2186 29.3048C18.0188 28.7794 16.4131 28.7022 14.5817 29.3048C13.8399 29.5488 13.5023 30.3358 12.4229 30.2213C10.6306 30.031 7.68548 29.1329 6.96587 28.9611C6.24626 28.7892 5.23591 28.5601 5.04693 27.93C4.96104 27.6436 5.34677 27.0708 5.40673 26.4979C5.49539 25.6509 5.00029 25.0081 5.52667 24.3212C6.00982 23.6908 6.73057 23.8987 7.44561 23.5193C7.98532 23.2329 8.13254 22.942 8.46505 22.4882C8.88482 21.9154 8.67754 21.2611 8.76489 20.8843C9.38819 18.1957 10.1662 16.7887 11.8232 14.5261L11.8265 14.5216C12.6179 13.441 13.4608 12.2899 13.1425 10.7455C12.5234 7.74172 13.6022 3.89657 16.8005 3.69981ZM18.1197 7.25128C17.3911 7.25128 16.8005 7.86678 16.8005 8.62604C16.8005 9.14216 17.0734 9.59185 17.4771 9.82694C17.3546 9.67517 17.2802 9.47523 17.2802 9.25614C17.2802 8.7816 17.6292 8.39691 18.0598 8.39691C18.4903 8.39691 18.8393 8.7816 18.8393 9.25614C18.8393 9.52766 18.7251 9.76977 18.5466 9.92723C19.0657 9.74234 19.439 9.22961 19.439 8.62604C19.439 7.86678 18.8483 7.25128 18.1197 7.25128ZM15.9609 10.0581C15.721 10.1154 14.4161 10.86 14.4018 11.2037C14.3779 11.7765 15.4812 12.5212 16.0209 12.5212C17.102 12.5212 18.7794 11.3183 18.7194 11.0319C18.6234 10.5736 16.3807 9.95784 15.9609 10.0581ZM15.9609 13.2086C15.1813 13.2086 13.922 12.2921 13.922 12.2921C11.8347 15.9166 10.0842 20.0251 10.9237 21.9154C11.7632 23.8057 14.5369 24.4931 14.1619 25.5814C14.0374 25.9427 13.5622 26.3834 13.5622 26.3834C13.5622 26.3834 14.1619 27.4145 14.8216 27.5863C15.4812 27.7581 19.7388 27.529 20.6383 25.8106C21.2458 24.6501 20.8782 23.061 21.4779 22.4882C21.8753 22.1086 22.4373 22.2591 22.4373 22.2591C22.8571 18.3067 21.7846 14.189 19.439 11.9484C18.9593 11.4901 16.7405 13.2086 15.9609 13.2086ZM23.8166 24.8941C22.8888 24.9512 22.6772 23.1756 22.2574 23.1756C21.8377 23.1756 21.8377 27.1853 21.7777 28.3882C21.7177 29.5912 22.9171 29.763 23.6367 29.1902C24.3563 28.6174 28.0742 26.7271 28.0742 26.3834C28.0742 26.0397 27.1626 25.8383 26.695 25.2378C26.2837 24.7094 26.3952 23.6911 26.1553 23.5766C25.9154 23.462 25.6756 24.7795 23.8166 24.8941ZM12.0031 29.362C12.9948 29.5515 14.042 28.5601 13.3224 27.5863C11.8773 25.6307 10.5039 22.8319 9.54445 22.8319C8.77985 22.8319 8.79341 23.733 8.16521 24.1494C7.51414 24.5809 6.6485 24.1273 6.24626 24.7795C5.91321 25.3195 6.3662 25.8678 6.3662 26.4979C6.3662 27.0464 5.94182 27.2228 6.06637 27.7581C6.18631 28.2737 9.60443 28.9038 12.0031 29.362ZM14.8215 7.4804C14.1923 7.4804 13.6822 8.09591 13.6822 8.85517C13.6822 9.28517 13.8458 9.66907 14.102 9.92116C14.0634 9.7877 14.042 9.64027 14.042 9.48527C14.042 8.88418 14.3642 8.39691 14.7616 8.39691C15.159 8.39691 15.4812 8.88418 15.4812 9.48527C15.4812 9.69544 15.4418 9.89171 15.3736 10.0581C15.7238 9.82357 15.9609 9.37277 15.9609 8.85517C15.9609 8.09591 15.4508 7.4804 14.8215 7.4804Z" fill="#F9AB10"/>
<path d="M13.6822 8.85517C13.6822 8.09591 14.1923 7.4804 14.8215 7.4804C15.4508 7.4804 15.9609 8.09591 15.9609 8.85517C15.9609 9.37277 15.7238 9.82357 15.3736 10.0581C15.4418 9.89171 15.4812 9.69544 15.4812 9.48527C15.4812 8.88418 15.159 8.39691 14.7616 8.39691C14.3642 8.39691 14.042 8.88418 14.042 9.48527C14.042 9.64027 14.0634 9.7877 14.102 9.92116C13.8458 9.66907 13.6822 9.28517 13.6822 8.85517Z" fill="#F9AB10"/>
<path d="M16.8005 8.62604C16.8005 7.86678 17.3911 7.25128 18.1197 7.25128C18.8483 7.25128 19.439 7.86678 19.439 8.62604C19.439 9.22961 19.0657 9.74234 18.5466 9.92723C18.7251 9.76977 18.8393 9.52766 18.8393 9.25614C18.8393 8.7816 18.4903 8.39691 18.0598 8.39691C17.6292 8.39691 17.2802 8.7816 17.2802 9.25614C17.2802 9.47523 17.3546 9.67517 17.4771 9.82694C17.0734 9.59185 16.8005 9.14216 16.8005 8.62604Z" fill="#F9AB10"/>
</svg>
