<svg width="28" height="28" viewBox="0 0 28 28" fill="none" xmlns="http://www.w3.org/2000/svg">
<path d="M9.54752 23.7506C18.6042 23.7506 23.5578 16.2473 23.5578 9.7404C23.5578 9.52728 23.5578 9.31512 23.5434 9.10392C24.507 8.40687 25.3389 7.5438 26 6.55512C25.1013 6.95333 24.148 7.21447 23.1718 7.32984C24.1998 6.71446 24.9691 5.74658 25.3366 4.60632C24.3701 5.17987 23.3126 5.58409 22.2099 5.80152C21.4675 5.0121 20.4856 4.48936 19.4162 4.3142C18.3468 4.13905 17.2494 4.32123 16.294 4.83257C15.3385 5.34391 14.5782 6.15589 14.1307 7.14287C13.6833 8.12984 13.5735 9.23678 13.8186 10.2924C11.8609 10.1943 9.94572 9.68552 8.19741 8.7992C6.4491 7.91289 4.90672 6.66882 3.6704 5.14776C3.04073 6.23175 2.84787 7.51499 3.1311 8.73618C3.41433 9.95737 4.15234 11.0247 5.19488 11.7209C4.41127 11.6977 3.64475 11.4863 2.96 11.1046C2.96 11.1247 2.96 11.1458 2.96 11.167C2.96031 12.3038 3.35385 13.4056 4.07387 14.2853C4.79389 15.1651 5.79606 15.7687 6.9104 15.9938C6.18548 16.1915 5.42488 16.2204 4.68704 16.0783C5.00169 17.0567 5.61427 17.9123 6.43911 18.5254C7.26395 19.1386 8.25979 19.4785 9.28736 19.4978C7.54375 20.8682 5.38982 21.6121 3.17216 21.6098C2.78039 21.6091 2.389 21.5854 2 21.5388C4.25181 22.9839 6.87192 23.7504 9.54752 23.7468" fill="#1DA1F2"/>
</svg>
