<svg width="28" height="29" viewBox="0 0 28 29" fill="none" xmlns="http://www.w3.org/2000/svg">
<path d="M19.232 16.7333C19.328 15.9413 19.4 15.1493 19.4 14.3333C19.4 13.5173 19.328 12.7253 19.232 11.9333H23.288C23.48 12.7013 23.6 13.5053 23.6 14.3333C23.6 15.1613 23.48 15.9653 23.288 16.7333H19.232ZM17.108 23.4053C17.828 22.0733 18.38 20.6333 18.764 19.1333H22.304C21.152 21.1133 19.316 22.6493 17.108 23.4053ZM16.808 16.7333H11.192C11.072 15.9413 11 15.1493 11 14.3333C11 13.5173 11.072 12.7133 11.192 11.9333H16.808C16.916 12.7133 17 13.5173 17 14.3333C17 15.1493 16.916 15.9413 16.808 16.7333ZM14 23.8853C13.004 22.4453 12.2 20.8493 11.708 19.1333H16.292C15.8 20.8493 14.996 22.4453 14 23.8853ZM9.2 9.53331H5.696C6.836 7.54131 8.684 6.00531 10.88 5.26131C10.16 6.59331 9.62 8.03331 9.2 9.53331ZM5.696 19.1333H9.2C9.62 20.6333 10.16 22.0733 10.88 23.4053C8.684 22.6493 6.836 21.1133 5.696 19.1333ZM4.712 16.7333C4.52 15.9653 4.4 15.1613 4.4 14.3333C4.4 13.5053 4.52 12.7013 4.712 11.9333H8.768C8.672 12.7253 8.6 13.5173 8.6 14.3333C8.6 15.1493 8.672 15.9413 8.768 16.7333H4.712ZM14 4.76931C14.996 6.20931 15.8 7.81731 16.292 9.53331H11.708C12.2 7.81731 13.004 6.20931 14 4.76931ZM22.304 9.53331H18.764C18.38 8.03331 17.828 6.59331 17.108 5.26131C19.316 6.01731 21.152 7.54131 22.304 9.53331ZM14 2.33331C7.364 2.33331 2 7.73331 2 14.3333C2 17.5159 3.26428 20.5682 5.51472 22.8186C6.62902 23.9329 7.95189 24.8168 9.4078 25.4199C10.8637 26.0229 12.4241 26.3333 14 26.3333C17.1826 26.3333 20.2348 25.069 22.4853 22.8186C24.7357 20.5682 26 17.5159 26 14.3333C26 12.7575 25.6896 11.197 25.0866 9.74111C24.4835 8.2852 23.5996 6.96233 22.4853 5.84803C21.371 4.73373 20.0481 3.84982 18.5922 3.24676C17.1363 2.6437 15.5759 2.33331 14 2.33331V2.33331Z" fill="white"/>
</svg>
